<svg width="190" height="55" viewBox="0 0 190 55" fill="none" xmlns="http://www.w3.org/2000/svg">
<g clip-path="url(#clip0_1_942)">
<path d="M38.6133 19.1276C35.9223 15.3923 31.6041 13.3958 27.0982 13.3958C19.0876 13.3958 13.643 19.7073 13.643 27.7576C13.643 35.9368 19.1502 41.8618 27.2859 41.8618C31.5415 41.8618 35.8597 39.7365 38.6133 36.3232V52.4883C34.2951 53.8407 31.1034 54.8712 27.0356 54.8712C20.0264 54.8712 13.33 52.1019 8.1357 47.2073C2.56588 42.1838 0 35.4215 0 27.7576C0 20.6733 2.62846 13.8466 7.4473 8.75878C12.3913 3.54215 19.5257 0.386414 26.6601 0.386414C30.8531 0.386414 34.7332 1.35246 38.6133 3.02693V19.1276Z" fill="white"/>
<path d="M88.6167 53.6475H72.2827L59.8914 33.6827H59.7662V53.6475H46.6865V1.73886H66.2748C76.2254 1.73886 83.7979 6.63347 83.7979 17.7108C83.7979 24.8595 79.9178 31.0421 72.7834 32.3946L88.6167 53.6475ZM59.7662 24.9883H61.0179C65.2735 24.9883 70.0923 24.151 70.0923 18.548C70.0923 12.8805 65.2735 12.1077 61.0179 12.1077H59.7662V24.9883Z" fill="white"/>
<path d="M96.502 50.4918H109.331V53.5831H93.3103V1.73886H96.502V50.4918Z" fill="white"/>
<path d="M121.41 36.5164L114.651 53.5831H111.396L132.487 0L153.577 53.6475H150.323L143.564 36.5808H121.41V36.5164ZM132.487 8.37236L122.599 33.4251H142.312L132.487 8.37236Z" fill="white"/>
<path d="M160.649 53.6475V1.73886H170.725C174.542 1.73886 178.172 1.99647 181.176 4.76579C184.242 7.53511 185.369 11.3993 185.369 15.5211C185.369 20.2869 183.554 23.7646 179.549 26.1475C185.744 27.4356 190 32.5878 190 39.2213C190 43.4075 188.435 47.2072 185.306 49.9766C181.739 53.0679 178.047 53.7119 173.541 53.7119H160.649V53.6475ZM163.841 25.2459H169.41C172.852 25.2459 175.544 25.4391 178.422 23.3138C181.301 21.1885 182.177 18.548 182.177 15.0058C182.177 11.6569 180.926 8.30795 178.047 6.44027C175.481 4.76579 172.352 4.76579 169.41 4.76579H163.841V25.2459ZM163.841 50.4918H171.538C175.105 50.4918 178.735 50.6206 181.864 48.4953C184.931 46.37 186.808 43.1499 186.808 39.2857C186.808 35.4859 184.993 31.6862 181.614 30.0117C178.547 28.4016 174.354 28.3372 170.975 28.3372H163.903V50.4918H163.841Z" fill="white"/>
</g>
<defs>
<clipPath id="clip0_1_942">
<rect width="190" height="55" fill="white"/>
</clipPath>
</defs>
</svg>
