<svg width="30" height="30" viewBox="0 0 30 30" fill="none" xmlns="http://www.w3.org/2000/svg">
<path d="M14.7598 2.90039C18.7031 2.90039 19.166 2.91797 20.7246 2.98828C22.166 3.05273 22.9453 3.29297 23.4668 3.49805C24.1582 3.76758 24.6504 4.08398 25.166 4.59961C25.6816 5.11523 26.0039 5.60742 26.2676 6.29883C26.4668 6.82031 26.7129 7.59961 26.7773 9.04101C26.8477 10.5996 26.8652 11.0625 26.8652 15.0059C26.8652 18.9492 26.8477 19.4121 26.7773 20.9707C26.7129 22.4121 26.4727 23.1914 26.2676 23.7129C25.998 24.4043 25.6816 24.8965 25.166 25.4121C24.6504 25.9277 24.1582 26.25 23.4668 26.5137C22.9453 26.7129 22.166 26.959 20.7246 27.0234C19.166 27.0937 18.7031 27.1113 14.7598 27.1113C10.8164 27.1113 10.3535 27.0937 8.79492 27.0234C7.35352 26.959 6.57422 26.7187 6.05273 26.5137C5.36133 26.2441 4.86914 25.9277 4.35352 25.4121C3.83789 24.8965 3.51562 24.4043 3.25195 23.7129C3.05273 23.1914 2.80664 22.4121 2.74219 20.9707C2.67188 19.4121 2.6543 18.9492 2.6543 15.0059C2.6543 11.0625 2.67188 10.5996 2.74219 9.04101C2.80664 7.59961 3.04688 6.82031 3.25195 6.29883C3.52148 5.60742 3.83789 5.11523 4.35352 4.59961C4.86914 4.08398 5.36133 3.76172 6.05273 3.49805C6.57422 3.29883 7.35352 3.05273 8.79492 2.98828C10.3535 2.91211 10.8164 2.90039 14.7598 2.90039ZM14.7598 0.240234C10.752 0.240234 10.248 0.257812 8.67188 0.328125C7.10156 0.398437 6.0293 0.650391 5.0918 1.01367C4.11914 1.38867 3.29883 1.89844 2.47852 2.71875C1.6582 3.53906 1.1543 4.36523 0.773437 5.33203C0.410156 6.26953 0.158203 7.3418 0.0878906 8.91797C0.0175781 10.4883 0 10.9922 0 15C0 19.0078 0.0175781 19.5117 0.0878906 21.0879C0.158203 22.6582 0.410156 23.7305 0.773437 24.6738C1.14844 25.6465 1.6582 26.4668 2.47852 27.2871C3.29883 28.1074 4.125 28.6113 5.0918 28.9922C6.0293 29.3555 7.10156 29.6074 8.67773 29.6777C10.2539 29.748 10.752 29.7656 14.7656 29.7656C18.7793 29.7656 19.2773 29.748 20.8535 29.6777C22.4238 29.6074 23.4961 29.3555 24.4395 28.9922C25.4121 28.6172 26.2324 28.1074 27.0527 27.2871C27.873 26.4668 28.377 25.6406 28.7578 24.6738C29.1211 23.7363 29.373 22.6641 29.4434 21.0879C29.5137 19.5117 29.5312 19.0137 29.5312 15C29.5312 10.9863 29.5137 10.4883 29.4434 8.91211C29.373 7.3418 29.1211 6.26953 28.7578 5.32617C28.3828 4.35352 27.873 3.5332 27.0527 2.71289C26.2324 1.89258 25.4063 1.38867 24.4395 1.00781C23.502 0.644531 22.4297 0.392578 20.8535 0.322266C19.2715 0.257813 18.7676 0.240234 14.7598 0.240234Z" fill="white"/>
<path d="M14.7598 7.41797C10.5762 7.41797 7.17773 10.8105 7.17773 15C7.17773 19.1895 10.5762 22.582 14.7598 22.582C18.9434 22.582 22.3418 19.1836 22.3418 15C22.3418 10.8164 18.9434 7.41797 14.7598 7.41797ZM14.7598 19.9219C12.041 19.9219 9.83789 17.7187 9.83789 15C9.83789 12.2812 12.041 10.0781 14.7598 10.0781C17.4785 10.0781 19.6816 12.2812 19.6816 15C19.6816 17.7187 17.4785 19.9219 14.7598 19.9219Z" fill="white"/>
<path d="M22.6406 8.88867C23.6179 8.88867 24.4102 8.09643 24.4102 7.11914C24.4102 6.14186 23.6179 5.34961 22.6406 5.34961C21.6633 5.34961 20.8711 6.14186 20.8711 7.11914C20.8711 8.09643 21.6633 8.88867 22.6406 8.88867Z" fill="white"/>
</svg>
