<svg width="77" height="94" viewBox="0 0 77 94" fill="none" xmlns="http://www.w3.org/2000/svg">
<g clip-path="url(#clip0_1_1298)">
<path d="M38.3 93.2L10.2 64.3C3.6 57.2 0 48 0 38.3C0 17.2 17.2 0 38.3 0C59.4 0 76.6 17.2 76.6 38.3C76.6 48 73 57.2 66.4 64.3L55.9 54.6C60 50.2 62.3 44.4 62.3 38.3C62.3 25.1 51.5 14.3 38.3 14.3C25.1 14.3 14.3 25.1 14.3 38.3C14.3 44.3 16.5 50.1 20.6 54.5L38.2 72.6L44.3 66.3L54.6 76.3L38.3 93.2Z" fill="black"/>
</g>
<defs>
<clipPath id="clip0_1_1298">
<rect width="76.6" height="93.2" fill="white"/>
</clipPath>
</defs>
</svg>
