<svg width="76" height="84" viewBox="0 0 76 84" fill="none" xmlns="http://www.w3.org/2000/svg">
<g clip-path="url(#clip0_1_1293)">
<path d="M53.9 49.9C60.7 44.9 65.2 36.8 65.2 27.6C65.2 12.4 52.8 0 37.6 0C22.4 0 9.9 12.4 9.9 27.6C9.9 36.7 14.3 44.8 21.2 49.9C8.7 56 0 68.8 0 83.7H13.7C13.7 70.5 24.4 59.8 37.6 59.8C50.8 59.8 61.5 70.5 61.5 83.7H75.2C75.1 68.8 66.5 56 53.9 49.9ZM37.6 13.7C45.3 13.7 51.6 20 51.6 27.7C51.6 35.4 45.3 41.7 37.6 41.7C29.9 41.7 23.6 35.4 23.6 27.7C23.6 19.9 29.9 13.7 37.6 13.7Z" fill="black"/>
</g>
<defs>
<clipPath id="clip0_1_1293">
<rect width="75.1" height="83.7" fill="white"/>
</clipPath>
</defs>
</svg>
