<svg width="500" height="500" viewBox="0 0 500 500" fill="none" xmlns="http://www.w3.org/2000/svg">
<g clip-path="url(#clip0_1_851)">
<path d="M124.609 48.2777V0.782889C55.7873 0.521929 0 56.6284 0 125.261H47.4453C47.4453 82.7244 82.1168 48.2777 124.609 48.2777Z" fill="white"/>
<path d="M250 172.756V125.261C181.439 125.261 125.391 181.107 125.391 250H172.836C172.836 207.203 207.508 172.756 250 172.756Z" fill="white"/>
<path d="M125.391 77.2442V124.739C193.952 124.739 250 68.8935 250 0L202.294 0.26096C202.294 42.7975 167.883 77.2442 125.391 77.2442Z" fill="white"/>
<path d="M124.609 172.756V125.261C55.7873 125 0 181.106 0 249.739H47.4453C47.4453 207.202 82.1168 172.756 124.609 172.756Z" fill="white"/>
<path d="M374.609 48.2777V0.782889C305.787 0.521929 250 56.6284 250 125.261H297.445C297.445 82.7244 332.117 48.2777 374.609 48.2777Z" fill="white"/>
<path d="M500 172.756V125.261C431.439 125.261 375.391 181.107 375.391 250H422.836C422.836 207.203 457.508 172.756 500 172.756Z" fill="white"/>
<path d="M375.391 77.2442V124.739C443.952 124.739 500 68.8935 500 0L452.294 0.26096C452.294 42.7975 417.883 77.2442 375.391 77.2442Z" fill="white"/>
<path d="M374.609 172.756V125.261C305.787 125 250 181.106 250 249.739H297.445C297.445 207.202 332.117 172.756 374.609 172.756Z" fill="white"/>
<path d="M124.609 298.278V250.783C55.7873 250.522 0 306.628 0 375.261H47.4453C47.4453 332.724 82.1168 298.278 124.609 298.278Z" fill="white"/>
<path d="M250 422.756V375.261C181.439 375.261 125.391 431.107 125.391 500H172.836C172.836 457.203 207.508 422.756 250 422.756Z" fill="white"/>
<path d="M125.391 327.244V374.739C193.952 374.739 250 318.894 250 250L202.294 250.261C202.294 292.797 167.883 327.244 125.391 327.244Z" fill="white"/>
<path d="M124.609 422.756V375.261C55.7873 375 0 431.106 0 499.739H47.4453C47.4453 457.202 82.1168 422.756 124.609 422.756Z" fill="white"/>
<path d="M374.609 298.278V250.783C305.787 250.522 250 306.628 250 375.261H297.445C297.445 332.724 332.117 298.278 374.609 298.278Z" fill="white"/>
<path d="M500 422.756V375.261C431.439 375.261 375.391 431.107 375.391 500H422.836C422.836 457.203 457.508 422.756 500 422.756Z" fill="white"/>
<path d="M375.391 327.244V374.739C443.952 374.739 500 318.894 500 250L452.294 250.261C452.294 292.797 417.883 327.244 375.391 327.244Z" fill="white"/>
<path d="M374.609 422.756V375.261C305.787 375 250 431.106 250 499.739H297.445C297.445 457.202 332.117 422.756 374.609 422.756Z" fill="white"/>
</g>
<defs>
<clipPath id="clip0_1_851">
<rect width="500" height="500" fill="white"/>
</clipPath>
</defs>
</svg>
