<svg width="26" height="26" viewBox="0 0 26 26" fill="none" xmlns="http://www.w3.org/2000/svg">
<path fill-rule="evenodd" clip-rule="evenodd" d="M22.3162 3.7442C19.9407 1.36877 16.7875 0.0604724 13.4233 0.0544434C6.48997 0.0544434 0.852833 5.69761 0.846804 12.625C0.846804 14.8436 1.42559 17.002 2.52287 18.9132L0.738281 25.4306L7.40638 23.6822C9.24523 24.683 11.3132 25.2136 13.4173 25.2136H13.4233C20.3507 25.2136 25.9939 19.5704 25.9999 12.637C25.9939 9.27885 24.6916 6.11964 22.3162 3.7442ZM13.4233 23.0913C11.5423 23.0913 9.70344 22.5849 8.09972 21.6323L7.71989 21.4032L3.76485 22.4402L4.81993 18.5816L4.57274 18.1837C3.52369 16.5197 2.97505 14.5964 2.97505 12.625C2.97505 6.86121 7.66563 2.17666 13.4294 2.17666C16.2208 2.17666 18.8434 3.26791 20.821 5.2394C22.7924 7.21692 23.8777 9.83955 23.8777 12.631C23.8716 18.4008 19.1811 23.0913 13.4233 23.0913ZM19.1509 15.2657C18.8374 15.1089 17.294 14.3493 17.0046 14.2407C16.7152 14.1382 16.5042 14.084 16.2992 14.3975C16.0882 14.711 15.4853 15.4224 15.3044 15.6274C15.1235 15.8384 14.9366 15.8625 14.6231 15.7058C14.3096 15.549 13.2967 15.2174 12.097 14.1443C11.1625 13.3123 10.5354 12.2813 10.3485 11.9678C10.1677 11.6543 10.3305 11.4855 10.4872 11.3287C10.6259 11.19 10.8007 10.9609 10.9575 10.7801C11.1142 10.5992 11.1685 10.4666 11.271 10.2555C11.3735 10.0445 11.3252 9.86366 11.2469 9.70691C11.1685 9.55015 10.5415 8.0007 10.2762 7.37368C10.023 6.75872 9.76373 6.84312 9.5708 6.83709C9.38993 6.82504 9.17891 6.82504 8.9679 6.82504C8.75688 6.82504 8.41926 6.90341 8.12986 7.21692C7.84047 7.53043 7.03258 8.29009 7.03258 9.83955C7.03258 11.389 8.16001 12.8782 8.31676 13.0892C8.47352 13.3002 10.5294 16.4715 13.6826 17.834C14.4302 18.1596 15.015 18.3525 15.4732 18.4972C16.2268 18.7384 16.9081 18.7022 17.4507 18.6238C18.0536 18.5334 19.3077 17.8642 19.573 17.1286C19.8322 16.3931 19.8322 15.7661 19.7538 15.6334C19.6754 15.5008 19.4705 15.4224 19.1509 15.2657Z" fill="white"/>
</svg>
